<svg xmlns="http://www.w3.org/2000/svg" width="20" height="20" viewBox="0 0 20 20"><defs><style>.a{fill:#191919;}</style></defs><path class="a" d="M30,19.5a10,10,0,0,0-9.671-9.992c-.043,0-.086-.008-.129-.008-.019,0-.038,0-.056,0-.048,0-.1,0-.144,0a10,10,0,0,0,0,20c.048,0,.1,0,.144,0,.019,0,.037,0,.056,0,.043,0,.086,0,.129-.008A10,10,0,0,0,30,19.5Zm-9.737,8.79-.1,0c-.394-.042-1.05-.721-1.615-2.161a14.735,14.735,0,0,1-.769-2.906h4.848a14.367,14.367,0,0,1-.772,2.906C21.3,27.536,20.66,28.222,20.263,28.29Zm-2.649-6.267a23.754,23.754,0,0,1-.132-2.522,24.1,24.1,0,0,1,.13-2.524h5.175a23.889,23.889,0,0,1,.132,2.524,24.063,24.063,0,0,1-.13,2.522Zm2.547-11.314.1,0c.4.067,1.037.749,1.59,2.158a14.655,14.655,0,0,1,.769,2.9H17.774a14.352,14.352,0,0,1,.772-2.9C19.113,11.427,19.77,10.75,20.161,10.708ZM24,16.976h4.431a8.807,8.807,0,0,1,0,5.046H24a24.9,24.9,0,0,0,.126-2.522A24.938,24.938,0,0,0,24,16.976Zm3.972-1.2H23.839A13.037,13.037,0,0,0,22.266,11,8.814,8.814,0,0,1,27.968,15.772Zm-9.761-4.883a12.746,12.746,0,0,0-1.646,4.883H12.036A8.819,8.819,0,0,1,18.206,10.889Zm-6.631,6.087H16.4a25.285,25.285,0,0,0,0,5.046H11.573a8.78,8.78,0,0,1,0-5.046Zm.456,6.25H16.56a12.741,12.741,0,0,0,1.647,4.887A8.81,8.81,0,0,1,12.031,23.226ZM22.266,28a13.04,13.04,0,0,0,1.574-4.774h4.129A8.814,8.814,0,0,1,22.266,28Z" transform="translate(-10 -9.5)"/></svg>