<svg xmlns="http://www.w3.org/2000/svg" width="290.123" height="71.116" viewBox="0 0 290.123 71.116"><defs><style>.a{fill:#bee545;}.b{fill:#191919;}</style></defs><path class="a" d="M494.393,421.217v12.176H499.8V422.568l-6.762-6.762H482.217v5.411ZM483.568,438.8h10.825v-5.411H482.217V421.217h-5.411v10.825ZM460,427.3a28.3,28.3,0,1,1,28.3,28.3A28.337,28.337,0,0,1,460,427.3Zm51.3,0a23,23,0,1,0-23,23A23.024,23.024,0,0,0,511.3,427.3Z" transform="translate(-460 -399)"/><g transform="translate(70.762 2.762)"><g transform="translate(95.846 46.771)"><path class="b" d="M933.883,556.52v-9.871H930.9v-3.713h2.984V539h4.158v3.936h3.967v3.713H938.04v9.871h4.031V560.2H938.04Z" transform="translate(-930.899 -539)"/><path class="b" d="M972.537,567.075a7.57,7.57,0,0,1-3.142-.6,4.569,4.569,0,0,1-2.793-4.348,4.828,4.828,0,0,1,2.6-4.443,9.842,9.842,0,0,1,3.365-1.079l5.649-.92v3.174l-4.856.826a3.54,3.54,0,0,0-1.841.793,1.961,1.961,0,0,0-.6,1.492,1.686,1.686,0,0,0,.683,1.412,2.7,2.7,0,0,0,1.7.524,4.653,4.653,0,0,0,2.3-.556,3.95,3.95,0,0,0,1.555-1.539,4.316,4.316,0,0,0,.556-2.158V555.2a2.345,2.345,0,0,0-.873-1.857,3.422,3.422,0,0,0-2.3-.746,4.054,4.054,0,0,0-2.365.714,4.141,4.141,0,0,0-1.508,1.889l-3.4-1.651a5.988,5.988,0,0,1,1.6-2.364,8.068,8.068,0,0,1,2.587-1.571,8.977,8.977,0,0,1,3.237-.571,8.555,8.555,0,0,1,3.745.778,6.088,6.088,0,0,1,2.523,2.158,5.745,5.745,0,0,1,.9,3.221v11.49h-3.936v-2.952l.889-.064a6.982,6.982,0,0,1-1.587,1.857,6.709,6.709,0,0,1-2.095,1.143A8.1,8.1,0,0,1,972.537,567.075Z" transform="translate(-953.969 -545.492)"/><path class="b" d="M1051.528,567.075a8.854,8.854,0,0,1-4.665-1.206,8.391,8.391,0,0,1-3.11-3.269,9.474,9.474,0,0,1-1.111-4.57,9.3,9.3,0,0,1,1.126-4.618,8.492,8.492,0,0,1,3.079-3.19,8.3,8.3,0,0,1,4.364-1.174,8.921,8.921,0,0,1,3.571.667,7.623,7.623,0,0,1,2.619,1.841,8.25,8.25,0,0,1,1.65,2.682,9.1,9.1,0,0,1,.571,3.253q0,.445-.048.92a3.458,3.458,0,0,1-.174.825h-13.33v-3.174h10.981l-1.968,1.492a4.731,4.731,0,0,0-.143-2.6,3.73,3.73,0,0,0-1.4-1.809,4.013,4.013,0,0,0-2.333-.666,4.2,4.2,0,0,0-2.317.65,4.025,4.025,0,0,0-1.539,1.9,6.605,6.605,0,0,0-.4,3.031,5.6,5.6,0,0,0,.429,2.809,4.166,4.166,0,0,0,1.65,1.889,4.757,4.757,0,0,0,2.523.667,4.616,4.616,0,0,0,2.428-.6,4.347,4.347,0,0,0,1.571-1.619l3.364,1.65a5.893,5.893,0,0,1-1.587,2.19,7.929,7.929,0,0,1-2.555,1.492A9.419,9.419,0,0,1,1051.528,567.075Z" transform="translate(-1003.106 -545.492)"/><path class="b" d="M1097.271,566.694V549.428h3.9v3.4l-.317-.6a4.563,4.563,0,0,1,1.983-2.364,6.255,6.255,0,0,1,3.221-.81,6.808,6.808,0,0,1,3.38.825,5.876,5.876,0,0,1,2.3,2.3,6.879,6.879,0,0,1,.825,3.412v11.109h-4.158V556.569a4.1,4.1,0,0,0-.444-1.968,3.259,3.259,0,0,0-1.222-1.285,3.819,3.819,0,0,0-3.634,0,3.22,3.22,0,0,0-1.238,1.285,4.1,4.1,0,0,0-.444,1.968v10.125Z" transform="translate(-1038.407 -545.492)"/><path class="b" d="M1192.439,567.075a9.223,9.223,0,0,1-4.618-1.174,9.005,9.005,0,0,1-.016-15.679,9.667,9.667,0,0,1,9.236,0,8.969,8.969,0,0,1,3.285,3.19,9.374,9.374,0,0,1-.016,9.283,9.075,9.075,0,0,1-7.871,4.38Zm0-3.809a4.533,4.533,0,0,0,2.46-.667,4.7,4.7,0,0,0,1.682-1.857,5.724,5.724,0,0,0,.619-2.682,5.609,5.609,0,0,0-.619-2.682,4.877,4.877,0,0,0-1.682-1.841,4.454,4.454,0,0,0-2.46-.682,4.591,4.591,0,0,0-2.507.682,4.827,4.827,0,0,0-1.7,1.841,5.608,5.608,0,0,0-.619,2.682,5.723,5.723,0,0,0,.619,2.682,4.542,4.542,0,0,0,4.205,2.523Z" transform="translate(-1093.997 -545.492)"/><path class="b" d="M1247.518,567.075a8.69,8.69,0,0,1-4.808-1.317,6.691,6.691,0,0,1-2.809-3.571l3.111-1.492a5.466,5.466,0,0,0,1.856,2.285,4.544,4.544,0,0,0,2.65.825,2.916,2.916,0,0,0,1.809-.508,1.6,1.6,0,0,0,.667-1.333,1.3,1.3,0,0,0-.27-.841,2.264,2.264,0,0,0-.73-.571,5.658,5.658,0,0,0-1-.4l-2.824-.794a6.733,6.733,0,0,1-3.317-1.936,4.549,4.549,0,0,1-1.127-3.079,4.82,4.82,0,0,1,.809-2.777,5.371,5.371,0,0,1,2.254-1.857,7.83,7.83,0,0,1,3.317-.667,7.954,7.954,0,0,1,4.316,1.174,6.446,6.446,0,0,1,2.666,3.3l-3.174,1.492a3.828,3.828,0,0,0-1.492-1.873,4.141,4.141,0,0,0-2.348-.7,2.6,2.6,0,0,0-1.651.476,1.5,1.5,0,0,0-.6,1.238,1.362,1.362,0,0,0,.254.825,1.849,1.849,0,0,0,.714.571,7.95,7.95,0,0,0,1.063.412l2.761.825a7.076,7.076,0,0,1,3.285,1.9,4.447,4.447,0,0,1,1.158,3.11,4.7,4.7,0,0,1-.825,2.745,5.474,5.474,0,0,1-2.285,1.857A8.188,8.188,0,0,1,1247.518,567.075Z" transform="translate(-1130.573 -545.492)"/><path class="b" d="M1016.883,556.574V539h4.132v17.574h4.943V560.2h-4.943Z" transform="translate(-986.461 -539)"/><path class="b" d="M1149.053,556.52v-9.871h-2.983v-3.713h2.983V539h4.158v3.936h3.967v3.713h-3.967v9.871h4.031V560.2h-4.031Z" transform="translate(-1069.941 -539)"/></g><path class="b" d="M755.944,466.664a11.781,11.781,0,0,1-5.06-1.022,8.081,8.081,0,0,1-3.382-2.832,7.518,7.518,0,0,1-1.206-4.273,7.922,7.922,0,0,1,4.195-7.236,15.57,15.57,0,0,1,5.4-1.783l9.857-1.625v4.667l-8.7,1.521a6.514,6.514,0,0,0-3.461,1.494,3.681,3.681,0,0,0-1.1,2.753,3.279,3.279,0,0,0,1.232,2.648A4.8,4.8,0,0,0,756.888,462a8.264,8.264,0,0,0,4.221-1.049,7.448,7.448,0,0,0,2.8-2.805,7.78,7.78,0,0,0,1-3.906v-7.288a4.336,4.336,0,0,0-1.547-3.434,6.076,6.076,0,0,0-4.116-1.337,6.989,6.989,0,0,0-4.116,1.232,7.394,7.394,0,0,0-2.6,3.172l-4.929-2.465a9.333,9.333,0,0,1,2.569-3.7,12.972,12.972,0,0,1,4.169-2.491,14.344,14.344,0,0,1,5.06-.891,13.48,13.48,0,0,1,5.951,1.258,9.747,9.747,0,0,1,4.037,3.487,9.3,9.3,0,0,1,1.442,5.165v19.086h-5.663V460.9l1.206.157a10.72,10.72,0,0,1-2.543,2.989,11.45,11.45,0,0,1-3.513,1.94A13.318,13.318,0,0,1,755.944,466.664Z" transform="translate(-715.764 -426.342)"/><path class="b" d="M836.517,446.5l-5.925-5.243V406.806h5.925v34.449h6.775V446.5Z" transform="translate(-770.235 -406.806)"/><path class="b" d="M884.862,466.664a14.747,14.747,0,0,1-7.472-1.94,14.843,14.843,0,0,1-.026-25.771,15.7,15.7,0,0,1,15.022,0,14.385,14.385,0,0,1,5.3,5.243,15.742,15.742,0,0,1-.026,15.285,14.457,14.457,0,0,1-5.348,5.27A14.758,14.758,0,0,1,884.862,466.664Zm0-5.506a8.263,8.263,0,0,0,4.457-1.206,8.563,8.563,0,0,0,3.067-3.33,10.072,10.072,0,0,0,1.128-4.8,9.919,9.919,0,0,0-1.128-4.771,8.623,8.623,0,0,0-3.067-3.3,8.792,8.792,0,0,0-8.888,0,8.541,8.541,0,0,0-3.093,3.3,9.91,9.91,0,0,0-1.128,4.771,10.063,10.063,0,0,0,1.128,4.8,8.482,8.482,0,0,0,3.093,3.33A8.3,8.3,0,0,0,884.862,461.158Z" transform="translate(-795.715 -426.342)"/><path class="b" d="M966.353,467.184V444.166l5.925-5.349h9.281v5.349h-9.281v23.018Z" transform="translate(-857.963 -427.491)"/><path class="b" d="M1022.519,467.184V438.817h5.925v28.367Z" transform="translate(-894.257 -427.491)"/><path class="b" d="M1058.324,439.124h22.608v9.511l-20.45,13.5h20.45v5.243h-22.608v-9.512l20.5-13.507h-20.5Z" transform="translate(-917.393 -427.69)"/><path class="b" d="M1220.291,466.664a11.781,11.781,0,0,1-5.06-1.022,8.081,8.081,0,0,1-3.382-2.832,7.518,7.518,0,0,1-1.206-4.273,7.924,7.924,0,0,1,4.195-7.236,15.57,15.57,0,0,1,5.4-1.783l9.858-1.625v4.667l-8.7,1.521a6.514,6.514,0,0,0-3.461,1.494,3.681,3.681,0,0,0-1.1,2.753,3.28,3.28,0,0,0,1.232,2.648,4.8,4.8,0,0,0,3.172,1.023,8.264,8.264,0,0,0,4.221-1.049,7.447,7.447,0,0,0,2.8-2.805,7.78,7.78,0,0,0,1-3.906v-7.288a4.336,4.336,0,0,0-1.547-3.434,6.076,6.076,0,0,0-4.116-1.337,6.989,6.989,0,0,0-4.116,1.232,7.394,7.394,0,0,0-2.6,3.172l-4.929-2.465a9.33,9.33,0,0,1,2.569-3.7,12.971,12.971,0,0,1,4.169-2.491,14.343,14.343,0,0,1,5.06-.891,13.48,13.48,0,0,1,5.951,1.258,9.747,9.747,0,0,1,4.037,3.487,9.3,9.3,0,0,1,1.442,5.165v19.086h-5.663V460.9l1.206.157a10.715,10.715,0,0,1-2.543,2.989,11.45,11.45,0,0,1-3.513,1.94A13.317,13.317,0,0,1,1220.291,466.664Z" transform="translate(-1015.821 -426.342)"/><path class="b" d="M683.161,438.993H689.6l-9.5,28.3H669.5l-9.5-28.3h6.444l8.359,27.3Z" transform="translate(-660 -427.605)"/><path class="b" d="M1136.474,439.124h22.608v9.511l-20.45,13.5h20.45v5.243h-22.608v-9.512l20.5-13.507h-20.5Z" transform="translate(-967.893 -427.69)"/></g></svg>