<svg xmlns="http://www.w3.org/2000/svg" width="154.231" height="28.842" viewBox="0 0 154.231 28.842"><defs><style>.a{fill:#fff;}</style></defs><path class="a" d="M395.216,5085.821a6.756,6.756,0,0,0-2.756-2.455,9.039,9.039,0,0,0-4.089-.884,9.627,9.627,0,0,0-6.34,2.382,6.746,6.746,0,0,0-1.8,2.5l3.04,1.574a5.428,5.428,0,0,1,1.968-2.323,5.307,5.307,0,0,1,3.055-.9,4.732,4.732,0,0,1,3.188,1.03,3.374,3.374,0,0,1,1.2,2.684v.922l-6.864,1.139a10.5,10.5,0,0,0-3.731,1.276,5.666,5.666,0,0,0-2.908,5.1,5.253,5.253,0,0,0,.864,2.982,5.8,5.8,0,0,0,2.4,2.024,8.115,8.115,0,0,0,3.528.731,9.555,9.555,0,0,0,3.168-.506,8.2,8.2,0,0,0,2.551-1.425,7.353,7.353,0,0,0,1.106-1.126v2.608h3.411v-13.727A6.625,6.625,0,0,0,395.216,5085.821Zm-2.532,8.776a6.032,6.032,0,0,1-.788,3.04,5.776,5.776,0,0,1-2.194,2.194,6.562,6.562,0,0,1-3.318.805,3.77,3.77,0,0,1-2.5-.825,2.574,2.574,0,0,1-.995-2.063,2.973,2.973,0,0,1,.883-2.195,5.2,5.2,0,0,1,2.832-1.219l6.074-1.057Z" transform="translate(-357.866 -5074.757)"/><path class="a" d="M401.836,5100.663v-25.2H398.31v25.2l3.189,3.189h5.175v-3.189Z" transform="translate(-355.951 -5075.46)"/><path class="a" d="M426.2,5087.586a10.069,10.069,0,0,0-3.733-3.733,10.429,10.429,0,0,0-5.325-1.371,10.24,10.24,0,0,0-5.288,1.39,10.36,10.36,0,0,0-3.75,3.75,11.212,11.212,0,0,0,.02,10.84,10.256,10.256,0,0,0,9.019,5.136,10.167,10.167,0,0,0,5.231-1.368,10.407,10.407,0,0,0,5.2-9.207A10.66,10.66,0,0,0,426.2,5087.586Zm-3.227,9.112a6.655,6.655,0,0,1-2.4,2.589,6.39,6.39,0,0,1-3.432.937,6.318,6.318,0,0,1-3.393-.937,6.807,6.807,0,0,1-2.42-2.589,7.556,7.556,0,0,1-.9-3.674,7.343,7.343,0,0,1,.9-3.639,6.887,6.887,0,0,1,2.42-2.548,6.334,6.334,0,0,1,3.393-.94,6.405,6.405,0,0,1,3.432.94,6.728,6.728,0,0,1,2.4,2.548,7.465,7.465,0,0,1,.883,3.639A7.682,7.682,0,0,1,422.978,5096.7Z" transform="translate(-355.109 -5074.757)"/><path class="a" d="M432.1,5082.893l-3.186,3.188v17.027h3.525V5086.23h6.825v-3.337Z" transform="translate(-352.886 -5074.716)"/><path class="a" d="M441.794,5082.9v20.213h3.526V5082.9Z" transform="translate(-351.597 -5074.716)"/><path class="a" d="M500.557,5085.821a6.735,6.735,0,0,0-2.758-2.455,9.026,9.026,0,0,0-4.087-.884,9.48,9.48,0,0,0-3.452.639,9.376,9.376,0,0,0-2.888,1.743,6.745,6.745,0,0,0-1.8,2.5l3.036,1.574a5.469,5.469,0,0,1,1.969-2.323,5.318,5.318,0,0,1,3.057-.9,4.731,4.731,0,0,1,3.188,1.03,3.374,3.374,0,0,1,1.2,2.684v.922l-6.864,1.139a10.5,10.5,0,0,0-3.731,1.276,5.666,5.666,0,0,0-2.908,5.1,5.236,5.236,0,0,0,.864,2.982,5.8,5.8,0,0,0,2.4,2.024,8.106,8.106,0,0,0,3.526.731,9.559,9.559,0,0,0,3.171-.506,8.2,8.2,0,0,0,2.551-1.425,7.387,7.387,0,0,0,1.106-1.129v2.61h3.411v-13.727A6.625,6.625,0,0,0,500.557,5085.821Zm-2.532,8.776a6.066,6.066,0,0,1-.788,3.04,5.775,5.775,0,0,1-2.194,2.194,6.565,6.565,0,0,1-3.32.805,3.768,3.768,0,0,1-2.493-.825,2.574,2.574,0,0,1-.995-2.063,2.973,2.973,0,0,1,.883-2.195,5.2,5.2,0,0,1,2.828-1.219l6.077-1.057Z" transform="translate(-347.319 -5074.757)"/><path class="a" d="M465.485,5082.9H449.314v3.338h15.071l-15.071,10.412v6.463h16.171v-3.339H450.453l15.032-10.411Z" transform="translate(-350.844 -5074.716)"/><path class="a" d="M483.463,5082.9H467.291v3.338h15.071l-15.071,10.412v6.463h16.172v-3.339H468.431l15.032-10.411Z" transform="translate(-349.044 -5074.716)"/><g transform="translate(0 8.211)"><path class="a" d="M370.115,5101.841l5.951-18.917h4.055l-6.784,20.181H366.59l-6.784-20.181h4.321Z" transform="translate(-359.806 -5082.924)"/></g></svg>