<svg xmlns="http://www.w3.org/2000/svg" width="290.031" height="71.13" viewBox="0 0 290.031 71.13"><defs><style>.a{fill:#191919;}.b{fill:#bee545;}</style></defs><g transform="translate(-460 -363)"><g transform="translate(530.739 365.761)"><g transform="translate(0 0)"><path class="a" d="M755.941,477.655a11.776,11.776,0,0,1-5.058-1.022A8.079,8.079,0,0,1,747.5,473.8a7.515,7.515,0,0,1-1.205-4.272,7.92,7.92,0,0,1,4.193-7.234,15.565,15.565,0,0,1,5.4-1.782l9.854-1.625v4.665l-8.7,1.52a6.512,6.512,0,0,0-3.459,1.494,3.681,3.681,0,0,0-1.1,2.752,3.279,3.279,0,0,0,1.232,2.647,4.8,4.8,0,0,0,3.171,1.022,8.261,8.261,0,0,0,4.22-1.048,7.445,7.445,0,0,0,2.8-2.8,7.777,7.777,0,0,0,1-3.905v-7.286a4.335,4.335,0,0,0-1.546-3.433,6.074,6.074,0,0,0-4.115-1.337,6.986,6.986,0,0,0-4.115,1.232,7.391,7.391,0,0,0-2.595,3.171l-4.927-2.464a9.329,9.329,0,0,1,2.569-3.7,12.963,12.963,0,0,1,4.167-2.49,14.338,14.338,0,0,1,5.058-.891,13.474,13.474,0,0,1,5.949,1.258,9.743,9.743,0,0,1,4.036,3.486,9.292,9.292,0,0,1,1.442,5.163v19.08h-5.661v-5.137l1.206.157a10.717,10.717,0,0,1-2.542,2.988,11.446,11.446,0,0,1-3.512,1.94A13.315,13.315,0,0,1,755.941,477.655Z" transform="translate(-715.774 -437.346)"/><path class="a" d="M836.515,457.486l-5.923-5.242V417.806h5.923v34.438h6.773v5.242Z" transform="translate(-770.254 -417.806)"/><path class="a" d="M884.857,477.655a14.742,14.742,0,0,1-7.469-1.939,14.839,14.839,0,0,1-.026-25.763,15.692,15.692,0,0,1,15.018,0,14.379,14.379,0,0,1,5.294,5.242,15.736,15.736,0,0,1-.026,15.28,14.451,14.451,0,0,1-5.347,5.268A14.751,14.751,0,0,1,884.857,477.655Zm0-5.5a8.261,8.261,0,0,0,4.456-1.205,8.563,8.563,0,0,0,3.066-3.329,10.07,10.07,0,0,0,1.127-4.8,9.917,9.917,0,0,0-1.127-4.77,8.621,8.621,0,0,0-3.066-3.3,8.79,8.79,0,0,0-8.885,0,8.538,8.538,0,0,0-3.092,3.3,9.907,9.907,0,0,0-1.127,4.77,10.06,10.06,0,0,0,1.127,4.8,8.481,8.481,0,0,0,3.092,3.329A8.3,8.3,0,0,0,884.857,472.151Z" transform="translate(-795.739 -437.346)"/><path class="a" d="M966.353,478.175V455.164l5.923-5.347h9.278v5.347h-9.278v23.011Z" transform="translate(-857.997 -438.495)"/><path class="a" d="M1022.519,478.175V449.817h5.923v28.358Z" transform="translate(-894.297 -438.495)"/><path class="a" d="M1058.324,450.124h22.6v9.508l-20.444,13.5h20.444v5.242h-22.6v-9.509l20.5-13.5h-20.5Z" transform="translate(-917.438 -438.693)"/><path class="a" d="M1220.288,477.655a11.775,11.775,0,0,1-5.058-1.022,8.078,8.078,0,0,1-3.381-2.831,7.515,7.515,0,0,1-1.205-4.272,7.919,7.919,0,0,1,4.194-7.234,15.562,15.562,0,0,1,5.4-1.782l9.855-1.625v4.665l-8.7,1.52a6.512,6.512,0,0,0-3.459,1.494,3.681,3.681,0,0,0-1.1,2.752,3.279,3.279,0,0,0,1.232,2.647,4.8,4.8,0,0,0,3.171,1.022,8.262,8.262,0,0,0,4.22-1.048,7.446,7.446,0,0,0,2.8-2.8,7.78,7.78,0,0,0,1-3.905v-7.286a4.336,4.336,0,0,0-1.546-3.433,6.074,6.074,0,0,0-4.115-1.337,6.986,6.986,0,0,0-4.115,1.232,7.388,7.388,0,0,0-2.595,3.171l-4.927-2.464a9.333,9.333,0,0,1,2.569-3.7,12.969,12.969,0,0,1,4.167-2.49,14.337,14.337,0,0,1,5.058-.891,13.475,13.475,0,0,1,5.95,1.258,9.743,9.743,0,0,1,4.036,3.486,9.291,9.291,0,0,1,1.442,5.163v19.08h-5.661v-5.137l1.206.157a10.719,10.719,0,0,1-2.543,2.988,11.439,11.439,0,0,1-3.512,1.94A13.315,13.315,0,0,1,1220.288,477.655Z" transform="translate(-1015.883 -437.346)"/><path class="a" d="M683.154,449.993H689.6l-9.5,28.3H669.5l-9.5-28.3h6.442l8.356,27.289Z" transform="translate(-660 -438.608)"/><path class="a" d="M1136.474,450.124h22.6v9.508l-20.444,13.5h20.444v5.242h-22.6v-9.509l20.5-13.5h-20.5Z" transform="translate(-967.947 -438.693)"/></g><g transform="translate(90.532 49.886)"><path class="a" d="M925.2,577.331a9.247,9.247,0,0,1-4.735-1.22,8.9,8.9,0,0,1-3.3-3.319,9.879,9.879,0,0,1,0-9.453,8.811,8.811,0,0,1,3.3-3.287,9.345,9.345,0,0,1,4.735-1.2,9.187,9.187,0,0,1,3.514.667,8.765,8.765,0,0,1,2.815,1.822,6.666,6.666,0,0,1,1.709,2.75l-3.742,1.627a4.428,4.428,0,0,0-1.643-2.148,4.493,4.493,0,0,0-2.652-.813,4.587,4.587,0,0,0-2.489.683A4.72,4.72,0,0,0,921,565.323a6.5,6.5,0,0,0,0,5.532,4.719,4.719,0,0,0,1.709,1.887,4.588,4.588,0,0,0,2.489.683,4.421,4.421,0,0,0,4.3-2.994l3.742,1.692a7.133,7.133,0,0,1-1.693,2.685,8.288,8.288,0,0,1-2.8,1.855A9.263,9.263,0,0,1,925.2,577.331Z" transform="translate(-915.96 -558.848)"/><path class="a" d="M975.036,577.331a7.761,7.761,0,0,1-3.222-.618,4.684,4.684,0,0,1-2.863-4.458,4.95,4.95,0,0,1,2.668-4.556,10.076,10.076,0,0,1,3.449-1.106l5.792-.944V568.9l-4.979.846a3.634,3.634,0,0,0-1.887.813,2.011,2.011,0,0,0-.618,1.529,1.729,1.729,0,0,0,.7,1.448,2.774,2.774,0,0,0,1.741.537,4.773,4.773,0,0,0,2.359-.569,4.054,4.054,0,0,0,1.594-1.578,4.427,4.427,0,0,0,.57-2.213v-4.556a2.4,2.4,0,0,0-.895-1.9,3.509,3.509,0,0,0-2.359-.765,4.151,4.151,0,0,0-2.424.732,4.24,4.24,0,0,0-1.546,1.936l-3.482-1.692a6.142,6.142,0,0,1,1.643-2.424,8.278,8.278,0,0,1,2.652-1.611,9.2,9.2,0,0,1,3.319-.586,8.774,8.774,0,0,1,3.84.8,6.244,6.244,0,0,1,2.587,2.213,5.892,5.892,0,0,1,.927,3.3v11.78h-4.035v-3.026l.911-.065a7.16,7.16,0,0,1-1.627,1.9,6.871,6.871,0,0,1-2.148,1.171A8.3,8.3,0,0,1,975.036,577.331Z" transform="translate(-950.208 -558.848)"/><path class="a" d="M1021.574,577.654V563.759l4.263-3.807h5.662v3.807h-5.662v13.895Z" transform="translate(-984.219 -559.562)"/><path class="a" d="M1053.5,577.654V563.759l4.263-3.807h5.662v3.807h-5.662v13.895Z" transform="translate(-1004.852 -559.562)"/><path class="a" d="M1159.39,577.654V563.759l4.262-3.807h5.662v3.807h-5.662v13.895Z" transform="translate(-1073.29 -559.562)"/><path class="a" d="M1092.508,577.331a9.078,9.078,0,0,1-4.783-1.236,8.615,8.615,0,0,1-3.189-3.352,9.724,9.724,0,0,1-1.139-4.686,9.533,9.533,0,0,1,1.155-4.735,8.7,8.7,0,0,1,3.156-3.27,8.511,8.511,0,0,1,4.474-1.2,9.15,9.15,0,0,1,3.661.683,7.819,7.819,0,0,1,2.684,1.887,8.47,8.47,0,0,1,1.692,2.75,9.346,9.346,0,0,1,.585,3.335q0,.456-.049.944a3.508,3.508,0,0,1-.179.846h-13.667v-3.254h11.259l-2.018,1.529a4.847,4.847,0,0,0-.146-2.668,3.821,3.821,0,0,0-1.432-1.855,4.115,4.115,0,0,0-2.392-.683,4.312,4.312,0,0,0-2.376.667,4.129,4.129,0,0,0-1.578,1.953,6.779,6.779,0,0,0-.407,3.108,5.756,5.756,0,0,0,.439,2.88,4.273,4.273,0,0,0,1.693,1.936,4.873,4.873,0,0,0,2.587.683,4.735,4.735,0,0,0,2.489-.618,4.46,4.46,0,0,0,1.611-1.66L1100.09,573a6.034,6.034,0,0,1-1.627,2.245,8.126,8.126,0,0,1-2.619,1.529A9.656,9.656,0,0,1,1092.508,577.331Z" transform="translate(-1024.175 -558.848)"/><path class="a" d="M1138.966,577.654v-17.7h4.263v17.7Z" transform="translate(-1060.089 -559.562)"/><path class="a" d="M1195.374,577.331a7.759,7.759,0,0,1-3.221-.618,4.685,4.685,0,0,1-2.864-4.458,4.95,4.95,0,0,1,2.668-4.556,10.078,10.078,0,0,1,3.449-1.106l5.792-.944V568.9l-4.979.846a3.632,3.632,0,0,0-1.887.813,2.012,2.012,0,0,0-.618,1.529,1.73,1.73,0,0,0,.7,1.448,2.775,2.775,0,0,0,1.741.537,4.774,4.774,0,0,0,2.359-.569,4.055,4.055,0,0,0,1.595-1.578,4.428,4.428,0,0,0,.569-2.213v-4.556a2.4,2.4,0,0,0-.895-1.9,3.51,3.51,0,0,0-2.359-.765,4.151,4.151,0,0,0-2.424.732,4.241,4.241,0,0,0-1.546,1.936l-3.482-1.692a6.141,6.141,0,0,1,1.643-2.424,8.268,8.268,0,0,1,2.652-1.611,9.2,9.2,0,0,1,3.319-.586,8.774,8.774,0,0,1,3.84.8,6.243,6.243,0,0,1,2.587,2.213,5.89,5.89,0,0,1,.927,3.3v11.78h-4.035v-3.026l.911-.065a7.16,7.16,0,0,1-1.627,1.9,6.868,6.868,0,0,1-2.148,1.171A8.3,8.3,0,0,1,1195.374,577.331Z" transform="translate(-1092.613 -558.848)"/><path class="a" d="M1246.686,577.331a8.908,8.908,0,0,1-4.93-1.35,6.858,6.858,0,0,1-2.88-3.661l3.189-1.529a5.609,5.609,0,0,0,1.9,2.343,4.659,4.659,0,0,0,2.717.846,2.99,2.99,0,0,0,1.855-.521,1.636,1.636,0,0,0,.683-1.367,1.332,1.332,0,0,0-.276-.862,2.318,2.318,0,0,0-.749-.586,5.776,5.776,0,0,0-1.025-.407l-2.9-.813a6.9,6.9,0,0,1-3.4-1.985,4.664,4.664,0,0,1-1.155-3.156,4.942,4.942,0,0,1,.83-2.847,5.507,5.507,0,0,1,2.31-1.9,8.029,8.029,0,0,1,3.4-.683,8.153,8.153,0,0,1,4.425,1.2,6.6,6.6,0,0,1,2.734,3.384l-3.254,1.529a3.927,3.927,0,0,0-1.529-1.92,4.247,4.247,0,0,0-2.408-.716,2.66,2.66,0,0,0-1.692.488,1.541,1.541,0,0,0-.618,1.269,1.4,1.4,0,0,0,.26.846,1.894,1.894,0,0,0,.732.586,8.157,8.157,0,0,0,1.09.423l2.831.846a7.247,7.247,0,0,1,3.368,1.952,4.559,4.559,0,0,1,1.188,3.189,4.819,4.819,0,0,1-.846,2.815,5.613,5.613,0,0,1-2.343,1.9A8.4,8.4,0,0,1,1246.686,577.331Z" transform="translate(-1124.662 -558.848)"/></g></g><g transform="translate(460 363)"><path class="b" d="M488.3,466.591a28.3,28.3,0,1,1,28.3-28.3A28.328,28.328,0,0,1,488.3,466.591Zm0-51.286a22.99,22.99,0,1,0,22.99,22.99A23.016,23.016,0,0,0,488.3,415.305Z" transform="translate(-460 -410)"/><path class="b" d="M555.276,467.252v9.3L542.5,481.807v-5.252l11.98-4.651-11.98-4.651V462Z" transform="translate(-513.32 -443.608)"/><path class="b" d="M519.155,467.252v9.3l-12.775,5.252v-5.429l11.98-4.474-11.98-4.474V462Z" transform="translate(-489.976 -443.608)"/></g></g></svg>