<svg xmlns="http://www.w3.org/2000/svg" width="267.275" height="50.011" viewBox="0 0 267.275 50.011"><defs><style>.a{fill:#0e2559;}</style></defs><g transform="translate(68.78 9.479)"><path d="M827.844,535.263a17.4,17.4,0,0,1-6.794-1.24,10.567,10.567,0,0,1-4.608-3.549,9.253,9.253,0,0,1-1.663-5.559v-1.2h6.176v1.2a4.671,4.671,0,0,0,1.853,4.041,8.4,8.4,0,0,0,5.036,1.347,8.223,8.223,0,0,0,4.822-1.154,3.506,3.506,0,0,0,1.591-2.95,2.69,2.69,0,0,0-.784-2.009,5.794,5.794,0,0,0-2.281-1.262,31.917,31.917,0,0,0-3.635-.919l-1.092-.214a29.857,29.857,0,0,1-5.867-1.732,9.088,9.088,0,0,1-3.753-2.758,7.121,7.121,0,0,1-1.307-4.447,7.611,7.611,0,0,1,1.449-4.682,9.155,9.155,0,0,1,4.086-2.993,16.752,16.752,0,0,1,6.2-1.048,17.268,17.268,0,0,1,6.343,1.09,9.66,9.66,0,0,1,4.371,3.25,8.87,8.87,0,0,1,1.591,5.409v1.283H833.4v-1.283a4.7,4.7,0,0,0-.737-2.758,4.235,4.235,0,0,0-2.115-1.539,9.773,9.773,0,0,0-3.278-.492,7.327,7.327,0,0,0-4.2.962,3.056,3.056,0,0,0-1.354,2.63,2.841,2.841,0,0,0,.641,1.881,4.739,4.739,0,0,0,1.924,1.283,18.361,18.361,0,0,0,3.278.9l1.094.214a33.373,33.373,0,0,1,6.2,1.753,10.288,10.288,0,0,1,4.109,2.822,6.748,6.748,0,0,1,1.473,4.49,7.839,7.839,0,0,1-1.544,4.81,10.143,10.143,0,0,1-4.371,3.25A17.309,17.309,0,0,1,827.844,535.263Z" transform="translate(-814.779 -504.135)"/><path d="M883.408,535.383v-24.8h-9.692v-5.131h25.656v5.131h-9.692v24.8Z" transform="translate(-846.921 -504.853)"/><path d="M930.982,535.383l8.742-29.931h10.927l8.742,29.931h-6.461l-1.806-6.585H939.249l-1.805,6.585Zm9.739-11.8h8.932L945.615,509h-.855Z" transform="translate(-878.151 -504.853)"/><path d="M1005.384,535.383V505.452h14.443a13.968,13.968,0,0,1,5.464.983,8.256,8.256,0,0,1,3.611,2.779,7.092,7.092,0,0,1,1.283,4.233v.513a6.478,6.478,0,0,1-1.425,4.361,8.335,8.335,0,0,1-3.516,2.437v.77a4.169,4.169,0,0,1,2.946,1.176,4,4,0,0,1,1.045,2.886v9.792h-6.271V526.4a2.359,2.359,0,0,0-.594-1.668,2.591,2.591,0,0,0-1.972-.641h-8.742v11.288Zm6.271-16.42h7.507a5.164,5.164,0,0,0,3.492-1.09,3.633,3.633,0,0,0,1.259-2.886v-.428a3.661,3.661,0,0,0-1.236-2.886,5.143,5.143,0,0,0-3.515-1.09h-7.507Z" transform="translate(-918.727 -504.853)"/><path d="M1078.612,535.383v-24.8h-9.692v-5.131h25.656v5.131h-9.692v24.8Z" transform="translate(-953.377 -504.853)"/><path d="M1137.889,535.383V505.452h21.38v5.131H1144.16v7.141h13.778v5.131H1144.16v7.4h15.394v5.131Z" transform="translate(-990.989 -504.853)"/><path d="M1196.825,535.383V505.452h14.444a13.968,13.968,0,0,1,5.463.983,8.254,8.254,0,0,1,3.611,2.779,7.091,7.091,0,0,1,1.283,4.233v.513a6.477,6.477,0,0,1-1.426,4.361,8.332,8.332,0,0,1-3.515,2.437v.77a4.166,4.166,0,0,1,2.946,1.176,4,4,0,0,1,1.045,2.886v9.792H1214.4V526.4a2.359,2.359,0,0,0-.594-1.668,2.589,2.589,0,0,0-1.971-.641H1203.1v11.288Zm6.272-16.42h7.507a5.162,5.162,0,0,0,3.492-1.09,3.633,3.633,0,0,0,1.259-2.886v-.428a3.662,3.662,0,0,0-1.236-2.886,5.143,5.143,0,0,0-3.515-1.09H1203.1Z" transform="translate(-1023.13 -504.853)"/></g><path class="a" d="M663.5,483.286V533.3h50.011V483.286Zm10.872,10.872h8.7v8.7h-8.7Zm28.267,28.267h-8.7v-8.7h8.7Zm0-19.569H697.2l-14.134,19.569h-8.7v-8.7H679.8l14.133-19.57h8.7Z" transform="translate(-663.496 -483.286)"/></svg>