<svg xmlns="http://www.w3.org/2000/svg" width="22.5" height="22.5" viewBox="0 0 22.5 22.5"><defs><style>.a{fill:#606060;}</style></defs><path class="a" d="M24.085,6.66A6.46,6.46,0,0,0,19.322,4.8H9.978A6.214,6.214,0,0,0,3.4,11.378v9.3a6.527,6.527,0,0,0,1.905,4.854A6.62,6.62,0,0,0,10.023,27.3h9.254a6.7,6.7,0,0,0,4.763-1.769,6.494,6.494,0,0,0,1.86-4.808V11.378A6.5,6.5,0,0,0,24.085,6.66ZM23.9,20.722a4.433,4.433,0,0,1-1.316,3.311,4.689,4.689,0,0,1-3.311,1.179H10.023a4.689,4.689,0,0,1-3.311-1.179,4.56,4.56,0,0,1-1.225-3.357v-9.3A4.522,4.522,0,0,1,6.711,8.066a4.613,4.613,0,0,1,3.311-1.179h9.345a4.522,4.522,0,0,1,3.311,1.225A4.681,4.681,0,0,1,23.9,11.378ZM14.65,10.2A5.806,5.806,0,1,0,20.456,16,5.818,5.818,0,0,0,14.65,10.2Zm0,9.526A3.72,3.72,0,1,1,18.37,16,3.737,3.737,0,0,1,14.65,19.724ZM20.683,8.747A1.316,1.316,0,1,0,22,10.062,1.315,1.315,0,0,0,20.683,8.747Z" transform="translate(-3.4 -4.8)"/></svg>