<svg xmlns="http://www.w3.org/2000/svg" width="22.359" height="22.5" viewBox="0 0 22.359 22.5"><defs><style>.a{fill:#606060;}</style></defs><path class="a" d="M380.705,5650H361.651a1.632,1.632,0,0,0-1.651,1.611v19.277a1.632,1.632,0,0,0,1.651,1.611h19.054a1.634,1.634,0,0,0,1.653-1.611v-19.277A1.633,1.633,0,0,0,380.705,5650Zm-13.928,18.835H363.4v-10.159h3.377Zm-1.688-11.548h-.022a1.93,1.93,0,1,1,.022,0Zm13.865,11.548h-3.377V5663.4c0-1.366-.489-2.3-1.71-2.3a1.849,1.849,0,0,0-1.733,1.235,2.311,2.311,0,0,0-.111.823v5.675h-3.377s.044-9.208,0-10.16h3.377v1.438a3.354,3.354,0,0,1,3.044-1.677c2.222,0,3.888,1.452,3.888,4.573v5.826Z" transform="translate(-360 -5650)"/></svg>