<svg xmlns="http://www.w3.org/2000/svg" width="183.749" height="35" viewBox="0 0 183.749 35"><defs><style>.a{fill:#fff;}.b{fill:#bee545;}</style></defs><path class="a" d="M704.85,742.744a7.287,7.287,0,0,1-3.129-.632,5,5,0,0,1-2.092-1.751,4.65,4.65,0,0,1-.746-2.643,4.9,4.9,0,0,1,2.594-4.475,9.625,9.625,0,0,1,3.34-1.1l6.1-1.027v2.908l-5.383.94a4.028,4.028,0,0,0-2.14.924,2.277,2.277,0,0,0-.681,1.7,2.029,2.029,0,0,0,.762,1.638,2.97,2.97,0,0,0,1.962.632,5.11,5.11,0,0,0,2.611-.648,4.608,4.608,0,0,0,1.735-1.735,4.811,4.811,0,0,0,.616-2.416v-4.508a2.682,2.682,0,0,0-.957-2.124,3.758,3.758,0,0,0-2.546-.827,4.32,4.32,0,0,0-2.546.762,4.573,4.573,0,0,0-1.605,1.962l-3.048-1.524a5.774,5.774,0,0,1,1.589-2.286,8.024,8.024,0,0,1,2.578-1.54,8.873,8.873,0,0,1,3.129-.551,8.337,8.337,0,0,1,3.681.778,6.029,6.029,0,0,1,2.5,2.157,5.751,5.751,0,0,1,.892,3.194v11.8h-3.5v-3.178l.746.1a6.635,6.635,0,0,1-1.573,1.849,7.084,7.084,0,0,1-2.173,1.2A8.238,8.238,0,0,1,704.85,742.744Zm16.144-.389-3.665-3.243V717.806h3.665v21.306h4.19v3.243Zm14.141.389a9.12,9.12,0,0,1-4.621-1.2,9.18,9.18,0,0,1-.016-15.939,9.706,9.706,0,0,1,9.291,0,8.9,8.9,0,0,1,3.275,3.243,9.736,9.736,0,0,1-.016,9.453,8.941,8.941,0,0,1-3.308,3.259A9.127,9.127,0,0,1,735.135,742.744Zm0-3.405a5.11,5.11,0,0,0,2.757-.746,5.3,5.3,0,0,0,1.9-2.059,6.231,6.231,0,0,0,.7-2.967,6.134,6.134,0,0,0-.7-2.951,5.33,5.33,0,0,0-1.9-2.043,5.436,5.436,0,0,0-5.5,0,5.28,5.28,0,0,0-1.913,2.043,6.129,6.129,0,0,0-.7,2.951,6.226,6.226,0,0,0,.7,2.967,5.248,5.248,0,0,0,1.913,2.059A5.132,5.132,0,0,0,735.135,739.339Zm11.9,3.016V728.118l3.664-3.308h5.74v3.308H750.7v14.237Zm12.29,0V724.811h3.664v17.544Zm7.835-17.477h13.983v5.883L768.5,739.112h12.648v3.243H767.162v-5.883l12.681-8.354H767.162Zm39.3,17.866a7.287,7.287,0,0,1-3.129-.632,5,5,0,0,1-2.092-1.751,4.65,4.65,0,0,1-.746-2.643,4.9,4.9,0,0,1,2.594-4.475,9.624,9.624,0,0,1,3.34-1.1l6.1-1.005v2.886l-5.383.94a4.029,4.029,0,0,0-2.14.924,2.277,2.277,0,0,0-.681,1.7,2.029,2.029,0,0,0,.762,1.638,2.97,2.97,0,0,0,1.962.632,5.11,5.11,0,0,0,2.61-.648,4.61,4.61,0,0,0,1.735-1.735,4.814,4.814,0,0,0,.616-2.416v-4.508a2.682,2.682,0,0,0-.957-2.124,3.758,3.758,0,0,0-2.546-.827,4.321,4.321,0,0,0-2.546.762,4.573,4.573,0,0,0-1.605,1.962L801.3,728.8a5.773,5.773,0,0,1,1.589-2.286,8.023,8.023,0,0,1,2.578-1.54,8.873,8.873,0,0,1,3.129-.551,8.337,8.337,0,0,1,3.681.778,6.029,6.029,0,0,1,2.5,2.157,5.75,5.75,0,0,1,.892,3.194v11.8h-3.5v-3.178l.746.1a6.632,6.632,0,0,1-1.573,1.849,7.085,7.085,0,0,1-2.173,1.2A8.238,8.238,0,0,1,806.46,742.744ZM694.325,724.849h3.985l-5.875,17.506h-6.559L680,724.849h3.985l5.17,16.883Zm89.939.029h13.983v5.883L785.6,739.112h12.648v3.243H784.263v-5.883l12.681-8.354H784.263Z" transform="translate(-631.92 -716.098)"/><path class="b" d="M477.506,745a17.5,17.5,0,1,1,17.506-17.5A17.523,17.523,0,0,1,477.506,745Zm0-31.719A14.219,14.219,0,1,0,491.729,727.5,14.237,14.237,0,0,0,477.506,713.281Zm8.488,8.173-5.152,14.212H474.17l-5.152-14.212h3.813l4.674,13.714,4.674-13.714Z" transform="translate(-460 -710)"/></svg>