<svg xmlns="http://www.w3.org/2000/svg" width="290.167" height="71.163" viewBox="0 0 290.167 71.163"><defs><style>.a{fill:#191919;}.b{fill:#bee545;}</style></defs><g transform="translate(70.773 2.762)"><g transform="translate(0 0)"><path class="a" d="M755.945,477.669a11.782,11.782,0,0,1-5.061-1.022,8.082,8.082,0,0,1-3.383-2.832,7.518,7.518,0,0,1-1.206-4.274,7.924,7.924,0,0,1,4.2-7.237,15.572,15.572,0,0,1,5.4-1.783l9.859-1.626v4.667l-8.705,1.521a6.516,6.516,0,0,0-3.461,1.494,3.682,3.682,0,0,0-1.1,2.753,3.281,3.281,0,0,0,1.232,2.648A4.8,4.8,0,0,0,756.889,473a8.265,8.265,0,0,0,4.222-1.049,7.448,7.448,0,0,0,2.805-2.806,7.781,7.781,0,0,0,1-3.907v-7.29a4.337,4.337,0,0,0-1.547-3.435,6.077,6.077,0,0,0-4.116-1.337,6.99,6.99,0,0,0-4.117,1.233,7.4,7.4,0,0,0-2.6,3.173l-4.93-2.465a9.334,9.334,0,0,1,2.57-3.7,12.972,12.972,0,0,1,4.169-2.491,14.345,14.345,0,0,1,5.061-.891,13.482,13.482,0,0,1,5.952,1.258,9.748,9.748,0,0,1,4.038,3.488,9.3,9.3,0,0,1,1.442,5.165v19.089h-5.664V471.9l1.206.157a10.72,10.72,0,0,1-2.544,2.989,11.451,11.451,0,0,1-3.513,1.941A13.32,13.32,0,0,1,755.945,477.669Z" transform="translate(-715.759 -437.341)"/><path class="a" d="M836.518,457.5l-5.926-5.244V417.806h5.926v34.455h6.776V457.5Z" transform="translate(-770.226 -417.806)"/><path class="a" d="M884.864,477.669a14.749,14.749,0,0,1-7.473-1.94,14.846,14.846,0,0,1-.026-25.775,15.7,15.7,0,0,1,15.025,0,14.386,14.386,0,0,1,5.3,5.244,15.744,15.744,0,0,1-.026,15.287,14.458,14.458,0,0,1-5.349,5.27A14.759,14.759,0,0,1,884.864,477.669Zm0-5.506a8.264,8.264,0,0,0,4.458-1.206,8.564,8.564,0,0,0,3.068-3.33,10.074,10.074,0,0,0,1.128-4.8,9.92,9.92,0,0,0-1.128-4.772,8.624,8.624,0,0,0-3.068-3.3,8.794,8.794,0,0,0-8.889,0,8.543,8.543,0,0,0-3.094,3.3,9.912,9.912,0,0,0-1.128,4.772,10.066,10.066,0,0,0,1.128,4.8,8.485,8.485,0,0,0,3.094,3.33A8.3,8.3,0,0,0,884.864,472.162Z" transform="translate(-795.704 -437.341)"/><path class="a" d="M966.353,478.188V455.166l5.926-5.349h9.283v5.349h-9.283v23.022Z" transform="translate(-857.946 -438.49)"/><path class="a" d="M1022.519,478.188V449.817h5.926v28.371Z" transform="translate(-894.237 -438.49)"/><path class="a" d="M1058.324,450.124h22.612v9.513l-20.453,13.506h20.453v5.244h-22.612v-9.513l20.506-13.509h-20.506Z" transform="translate(-917.372 -438.688)"/><path class="a" d="M1220.292,477.669a11.782,11.782,0,0,1-5.06-1.022,8.082,8.082,0,0,1-3.383-2.832,7.518,7.518,0,0,1-1.206-4.274,7.923,7.923,0,0,1,4.2-7.237,15.572,15.572,0,0,1,5.4-1.783l9.859-1.626v4.667l-8.706,1.521a6.516,6.516,0,0,0-3.461,1.494,3.683,3.683,0,0,0-1.1,2.753,3.28,3.28,0,0,0,1.233,2.648,4.8,4.8,0,0,0,3.173,1.023,8.265,8.265,0,0,0,4.222-1.049,7.454,7.454,0,0,0,2.806-2.806,7.786,7.786,0,0,0,1-3.907v-7.29a4.338,4.338,0,0,0-1.547-3.435,6.078,6.078,0,0,0-4.117-1.337,6.99,6.99,0,0,0-4.117,1.233,7.393,7.393,0,0,0-2.6,3.173l-4.93-2.465a9.337,9.337,0,0,1,2.57-3.7,12.973,12.973,0,0,1,4.169-2.491,14.344,14.344,0,0,1,5.06-.891,13.481,13.481,0,0,1,5.952,1.258,9.749,9.749,0,0,1,4.038,3.488,9.3,9.3,0,0,1,1.442,5.165v19.089h-5.664V471.9l1.207.157a10.723,10.723,0,0,1-2.544,2.989,11.452,11.452,0,0,1-3.514,1.941A13.32,13.32,0,0,1,1220.292,477.669Z" transform="translate(-1015.791 -437.341)"/><path class="a" d="M683.165,449.993h6.445l-9.5,28.309H669.5L660,449.993h6.445l8.36,27.3Z" transform="translate(-660 -438.603)"/><path class="a" d="M1136.474,450.124h22.612v9.513l-20.453,13.506h20.453v5.244h-22.612v-9.513l20.506-13.509h-20.506Z" transform="translate(-967.868 -438.688)"/></g><g transform="translate(90.575 49.91)"><path class="a" d="M925.206,577.339a9.25,9.25,0,0,1-4.737-1.221,8.9,8.9,0,0,1-3.3-3.321,9.883,9.883,0,0,1,0-9.457,8.816,8.816,0,0,1,3.3-3.288,9.348,9.348,0,0,1,4.737-1.2,9.189,9.189,0,0,1,3.516.667,8.772,8.772,0,0,1,2.816,1.823,6.671,6.671,0,0,1,1.71,2.751l-3.744,1.628a4.43,4.43,0,0,0-1.644-2.149,4.5,4.5,0,0,0-2.653-.814,4.588,4.588,0,0,0-2.49.684,4.721,4.721,0,0,0-1.709,1.888,6.5,6.5,0,0,0,0,5.534,4.72,4.72,0,0,0,1.709,1.888,4.589,4.589,0,0,0,2.49.684,4.423,4.423,0,0,0,4.3-3l3.744,1.693a7.137,7.137,0,0,1-1.693,2.686,8.294,8.294,0,0,1-2.8,1.856A9.27,9.27,0,0,1,925.206,577.339Z" transform="translate(-915.96 -558.848)"/><path class="a" d="M975.039,577.339a7.765,7.765,0,0,1-3.223-.618,4.686,4.686,0,0,1-2.865-4.46,4.952,4.952,0,0,1,2.669-4.558,10.081,10.081,0,0,1,3.451-1.107l5.795-.944v3.256l-4.981.846a3.636,3.636,0,0,0-1.888.814,2.012,2.012,0,0,0-.619,1.53,1.73,1.73,0,0,0,.7,1.449,2.775,2.775,0,0,0,1.742.537,4.776,4.776,0,0,0,2.36-.57,4.054,4.054,0,0,0,1.6-1.579,4.429,4.429,0,0,0,.57-2.214v-4.558a2.4,2.4,0,0,0-.9-1.9,3.511,3.511,0,0,0-2.36-.765,4.154,4.154,0,0,0-2.425.733,4.242,4.242,0,0,0-1.546,1.937l-3.484-1.693a6.144,6.144,0,0,1,1.644-2.425,8.282,8.282,0,0,1,2.653-1.611,9.207,9.207,0,0,1,3.321-.586,8.777,8.777,0,0,1,3.842.8,6.245,6.245,0,0,1,2.588,2.214,5.893,5.893,0,0,1,.928,3.3v11.785h-4.037v-3.028l.911-.065a7.158,7.158,0,0,1-1.628,1.9,6.872,6.872,0,0,1-2.149,1.172A8.31,8.31,0,0,1,975.039,577.339Z" transform="translate(-950.2 -558.848)"/><path class="a" d="M1021.574,577.662v-13.9l4.265-3.809h5.665v3.809h-5.665v13.9Z" transform="translate(-984.201 -559.561)"/><path class="a" d="M1053.5,577.662v-13.9l4.265-3.809h5.665v3.809h-5.665v13.9Z" transform="translate(-1004.828 -559.561)"/><path class="a" d="M1159.39,577.662v-13.9l4.264-3.809h5.665v3.809h-5.665v13.9Z" transform="translate(-1073.249 -559.561)"/><path class="a" d="M1092.512,577.339a9.082,9.082,0,0,1-4.785-1.237,8.618,8.618,0,0,1-3.191-3.353,9.726,9.726,0,0,1-1.139-4.688,9.54,9.54,0,0,1,1.156-4.737,8.705,8.705,0,0,1,3.158-3.272,8.513,8.513,0,0,1,4.476-1.2,9.156,9.156,0,0,1,3.663.684,7.824,7.824,0,0,1,2.686,1.888,8.478,8.478,0,0,1,1.693,2.751,9.654,9.654,0,0,1,.537,4.281,3.512,3.512,0,0,1-.179.846h-13.673v-3.256h11.264l-2.019,1.53a4.853,4.853,0,0,0-.146-2.67,3.824,3.824,0,0,0-1.433-1.856,4.117,4.117,0,0,0-2.393-.684,4.313,4.313,0,0,0-2.377.667,4.128,4.128,0,0,0-1.578,1.953,6.776,6.776,0,0,0-.407,3.109,5.756,5.756,0,0,0,.439,2.881,4.276,4.276,0,0,0,1.693,1.937,4.875,4.875,0,0,0,2.588.684,4.737,4.737,0,0,0,2.49-.619,4.46,4.46,0,0,0,1.612-1.66l3.451,1.693a6.038,6.038,0,0,1-1.628,2.246,8.133,8.133,0,0,1-2.62,1.53A9.665,9.665,0,0,1,1092.512,577.339Z" transform="translate(-1024.147 -558.848)"/><path class="a" d="M1138.966,577.662v-17.71h4.265v17.71Z" transform="translate(-1060.052 -559.561)"/><path class="a" d="M1195.377,577.339a7.765,7.765,0,0,1-3.223-.618,4.687,4.687,0,0,1-2.865-4.46,4.952,4.952,0,0,1,2.67-4.558,10.082,10.082,0,0,1,3.451-1.107l5.795-.944v3.256l-4.981.846a3.636,3.636,0,0,0-1.888.814,2.013,2.013,0,0,0-.618,1.53,1.73,1.73,0,0,0,.7,1.449,2.776,2.776,0,0,0,1.742.537,4.776,4.776,0,0,0,2.36-.57,4.055,4.055,0,0,0,1.6-1.579,4.429,4.429,0,0,0,.57-2.214v-4.558a2.4,2.4,0,0,0-.9-1.9,3.511,3.511,0,0,0-2.36-.765,4.154,4.154,0,0,0-2.425.733,4.244,4.244,0,0,0-1.547,1.937l-3.483-1.693a6.144,6.144,0,0,1,1.644-2.425,8.275,8.275,0,0,1,2.653-1.611,9.206,9.206,0,0,1,3.321-.586,8.776,8.776,0,0,1,3.842.8,6.246,6.246,0,0,1,2.588,2.214,5.893,5.893,0,0,1,.928,3.3v11.785h-4.037v-3.028l.911-.065a7.157,7.157,0,0,1-1.628,1.9,6.867,6.867,0,0,1-2.149,1.172A8.31,8.31,0,0,1,1195.377,577.339Z" transform="translate(-1092.568 -558.848)"/><path class="a" d="M1246.689,577.339a8.912,8.912,0,0,1-4.932-1.351,6.862,6.862,0,0,1-2.881-3.663l3.19-1.53a5.608,5.608,0,0,0,1.9,2.344,4.661,4.661,0,0,0,2.719.846,2.99,2.99,0,0,0,1.856-.521,1.637,1.637,0,0,0,.683-1.367,1.331,1.331,0,0,0-.277-.863,2.315,2.315,0,0,0-.749-.586,5.78,5.78,0,0,0-1.025-.407l-2.9-.814a6.908,6.908,0,0,1-3.4-1.986,4.666,4.666,0,0,1-1.156-3.158,4.944,4.944,0,0,1,.83-2.849,5.51,5.51,0,0,1,2.311-1.9,8.035,8.035,0,0,1,3.4-.684,8.156,8.156,0,0,1,4.427,1.2,6.609,6.609,0,0,1,2.735,3.386l-3.256,1.53a3.929,3.929,0,0,0-1.53-1.921,4.249,4.249,0,0,0-2.409-.716,2.661,2.661,0,0,0-1.693.488,1.542,1.542,0,0,0-.618,1.27,1.4,1.4,0,0,0,.26.846,1.9,1.9,0,0,0,.732.586,8.175,8.175,0,0,0,1.09.423l2.832.846a7.252,7.252,0,0,1,3.37,1.953,4.561,4.561,0,0,1,1.188,3.19,4.821,4.821,0,0,1-.846,2.816,5.616,5.616,0,0,1-2.344,1.9A8.4,8.4,0,0,1,1246.689,577.339Z" transform="translate(-1124.608 -558.848)"/></g></g><path class="b" d="M488.309,466.618a28.309,28.309,0,1,1,28.309-28.309A28.341,28.341,0,0,1,488.309,466.618Zm0-51.31a23,23,0,1,0,23,23A23.027,23.027,0,0,0,488.309,415.308Z" transform="translate(-460 -410)"/><path class="b" d="M555.282,467.255v9.307L542.5,481.816v-5.255l11.985-4.653L542.5,467.255V462Z" transform="translate(-513.306 -443.599)"/><path class="b" d="M519.161,467.255v9.307l-12.781,5.255v-5.432l11.985-4.476-11.985-4.476V462Z" transform="translate(-489.968 -443.599)"/></svg>