<svg xmlns="http://www.w3.org/2000/svg" width="117" height="22.5" viewBox="0 0 117 22.5"><defs><style>.a{fill:#bfbfbf;}</style></defs><g transform="translate(-17)"><g transform="translate(17 0)"><path class="a" d="M24.085,6.66A6.46,6.46,0,0,0,19.322,4.8H9.978A6.214,6.214,0,0,0,3.4,11.378v9.3a6.527,6.527,0,0,0,1.905,4.854A6.62,6.62,0,0,0,10.023,27.3h9.254a6.7,6.7,0,0,0,4.763-1.769,6.494,6.494,0,0,0,1.86-4.808V11.378A6.5,6.5,0,0,0,24.085,6.66ZM23.9,20.722a4.433,4.433,0,0,1-1.316,3.311,4.689,4.689,0,0,1-3.311,1.179H10.023a4.689,4.689,0,0,1-3.311-1.179,4.56,4.56,0,0,1-1.225-3.357v-9.3A4.522,4.522,0,0,1,6.711,8.066a4.613,4.613,0,0,1,3.311-1.179h9.345a4.522,4.522,0,0,1,3.311,1.225A4.681,4.681,0,0,1,23.9,11.378ZM14.65,10.2A5.806,5.806,0,1,0,20.456,16,5.818,5.818,0,0,0,14.65,10.2Zm0,9.526A3.72,3.72,0,1,1,18.37,16,3.737,3.737,0,0,1,14.65,19.724ZM20.683,8.747A1.316,1.316,0,1,0,22,10.062,1.315,1.315,0,0,0,20.683,8.747Z" transform="translate(-3.4 -4.8)"/></g><g transform="translate(59.302)"><path class="a" d="M380.705,5650H361.651a1.632,1.632,0,0,0-1.651,1.611v19.277a1.632,1.632,0,0,0,1.651,1.611h19.054a1.634,1.634,0,0,0,1.653-1.611v-19.277A1.633,1.633,0,0,0,380.705,5650Zm-13.928,18.835H363.4v-10.159h3.377Zm-1.688-11.548h-.022a1.93,1.93,0,1,1,.022,0Zm13.865,11.548h-3.377V5663.4c0-1.366-.489-2.3-1.71-2.3a1.849,1.849,0,0,0-1.733,1.235,2.311,2.311,0,0,0-.111.823v5.675h-3.377s.044-9.208,0-10.16h3.377v1.438a3.354,3.354,0,0,1,3.044-1.677c2.222,0,3.888,1.452,3.888,4.573v5.826Z" transform="translate(-360 -5650)"/></g><g transform="translate(102)"><path class="a" d="M471.331,5654.77a4.019,4.019,0,0,0-2.829-2.847c-2.5-.673-12.5-.673-12.5-.673s-10.007,0-12.5.673a4.018,4.018,0,0,0-2.829,2.847,45.25,45.25,0,0,0,0,15.5,3.958,3.958,0,0,0,2.829,2.8c2.495.673,12.5.673,12.5.673s10.007,0,12.5-.673a3.958,3.958,0,0,0,2.829-2.8,45.256,45.256,0,0,0,0-15.5Zm-18.6,12.51v-9.515l8.364,4.758Z" transform="translate(-440 -5651.25)"/></g></g></svg>