<svg xmlns="http://www.w3.org/2000/svg" width="17.5" height="17.584" viewBox="0 0 17.5 17.584"><defs><style>.a{fill:#606060;fill-rule:evenodd;}</style></defs><path class="a" d="M12.759,7.942c-.218-.109-1.288-.636-1.488-.708s-.345-.109-.49.109-.562.708-.689.854-.254.164-.472.054A5.943,5.943,0,0,1,7.87,7.171,6.562,6.562,0,0,1,6.658,5.662c-.127-.218-.014-.336.1-.444s.218-.254.327-.381A1.483,1.483,0,0,0,7.3,4.473a.4.4,0,0,0-.018-.381c-.054-.109-.49-1.181-.671-1.617s-1.092-.394-1.488-.109a2.073,2.073,0,0,0-.762,1.816,4.235,4.235,0,0,0,.889,2.252A9.705,9.705,0,0,0,8.967,9.722a12.5,12.5,0,0,0,1.241.459,2.983,2.983,0,0,0,1.371.086,2.242,2.242,0,0,0,1.47-1.035A1.82,1.82,0,0,0,13.176,8.2c-.054-.091-.2-.145-.417-.254M8.787,13.366h0A7.232,7.232,0,0,1,5.1,12.357L4.833,12.2l-2.741.719.732-2.673-.172-.274a7.242,7.242,0,1,1,6.135,3.394M14.95-.04A8.657,8.657,0,0,0,8.787-2.6a8.718,8.718,0,0,0-7.55,13.069L0,14.989l4.619-1.212a8.706,8.706,0,0,0,4.164,1.061h0A8.717,8.717,0,0,0,14.95-.04" transform="translate(0 2.595)"/></svg>