<svg xmlns="http://www.w3.org/2000/svg" width="32" height="22.5" viewBox="0 0 32 22.5"><defs><style>.a{fill:#606060;}</style></defs><path class="a" d="M471.331,5654.77a4.019,4.019,0,0,0-2.829-2.847c-2.5-.673-12.5-.673-12.5-.673s-10.007,0-12.5.673a4.018,4.018,0,0,0-2.829,2.847,45.25,45.25,0,0,0,0,15.5,3.958,3.958,0,0,0,2.829,2.8c2.495.673,12.5.673,12.5.673s10.007,0,12.5-.673a3.958,3.958,0,0,0,2.829-2.8,45.256,45.256,0,0,0,0-15.5Zm-18.6,12.51v-9.515l8.364,4.758Z" transform="translate(-440 -5651.25)"/></svg>